<?xml version="1.0" encoding="utf-8"?>
<!-- Generator: Adobe Illustrator 16.0.0, SVG Export Plug-In . SVG Version: 6.00 Build 0)  -->
<!DOCTYPE svg PUBLIC "-//W3C//DTD SVG 1.1//EN" "http://www.w3.org/Graphics/SVG/1.1/DTD/svg11.dtd">
<svg version="1.1" id="Layer_1" xmlns="http://www.w3.org/2000/svg" xmlns:xlink="http://www.w3.org/1999/xlink" x="0px" y="0px"
	 width="600px" height="600px" viewBox="0 0 600 600" enable-background="new 0 0 600 600" xml:space="preserve">
<path fill="#010202" d="M-244.894,295.145c0,20.886-17.221,35.542-35.542,35.542c-18.32,0-38.473-10.992-38.473-35.176
	c0-24.184,14.656-95.634,36.641-95.634C-259.916,199.877-244.894,270.229-244.894,295.145z"/>
<circle fill="#010202" cx="-284.099" cy="147.115" r="35.176"/>
<circle fill="#010202" cx="290.612" cy="220.363" r="54.177"/>
<path fill="#010202" d="M863.871,1063.387c0-317.096-256.762-575.262-575.258-575.262c-318.499,0-575.261,256.764-575.261,575.262
	c0,242.731,151.531,451.79,364.799,534.57c1.403-21.045,4.208-60.332,12.627-106.631
	c-161.354-72.965-275.002-237.122-275.002-427.939c0-260.973,211.863-472.836,472.836-472.836
	c260.973,0,472.834,211.863,472.834,472.836c0,182.4-103.824,340.944-253.957,419.519c8.42,44.899,12.627,82.784,14.033,106.635
	C722.162,1501.146,863.871,1299.103,863.871,1063.387z"/>
<path fill="#010202" d="M-187.732,147.114c0-53.496-43.237-96.366-96.367-96.366c-53.496,0-96.367,43.236-96.367,96.366
	c0,36.641,20.519,68.886,50.932,85.008c2.564-9.527,5.862-19.42,10.259-27.848c-19.053-11.725-31.878-32.977-31.878-57.16
	c0-37.374,30.046-67.42,67.42-67.42c37.375,0,67.42,30.046,67.42,67.42c0,22.351-10.993,42.137-27.481,54.229
	c4.397,8.428,8.062,17.954,10.992,27.847C-206.054,212.335-187.732,181.923-187.732,147.114z"/>
<line fill="none" stroke="#000000" stroke-width="20" stroke-miterlimit="10" x1="187.5" y1="505.688" x2="261.5" y2="254.309"/>
<line fill="none" stroke="#000000" stroke-width="20" stroke-miterlimit="10" x1="398.283" y1="505.688" x2="324.283" y2="254.309"/>
<line fill="none" stroke="#000000" stroke-width="20" stroke-linecap="round" stroke-miterlimit="10" x1="395.283" y1="506.188" x2="165.5" y2="155.187"/>
<line fill="none" stroke="#000000" stroke-width="20" stroke-linecap="round" stroke-miterlimit="10" x1="186.5" y1="506.188" x2="416.283" y2="155.187"/>
</svg>
