<svg xmlns="http://www.w3.org/2000/svg" xmlns:xlink="http://www.w3.org/1999/xlink" version="1.1" x="0px" y="0px" viewBox="0 0 100 125" enable-background="new 0 0 100 100" xml:space="preserve"><path d="M67.1,8.5l-0.1-0.2c-7.6-3.1-15.9-4.1-24.1-2.7l0.1,0.1c-4.8,0.8-9.5,2.3-14,4.7c-3.7,1.9-7,4.3-9.8,7l0-0.1  C14,22.2,10.1,28.1,7.8,34.7c0,0.1,0,0.1-0.1,0.2c-0.2,0.6-0.4,1.2-0.6,1.8c0,0.1,0,0.1-0.1,0.2c-0.2,0.7-0.4,1.3-0.6,2  c0,0.1-0.1,0.2-0.1,0.3c-0.1,0.5-0.2,1-0.4,1.5c-0.1,0.4-0.1,0.7-0.2,1.1c0,0.3-0.1,0.5-0.1,0.8c-0.1,0.4-0.1,0.9-0.2,1.3  c0,0.2,0,0.3-0.1,0.5C4.3,53.2,5.8,62.5,10.3,71C21.9,93,49,101.4,71,89.8S101.3,51,89.7,29.1C84.6,19.4,76.5,12.3,67.1,8.5z   M88.6,29.7c2.3,4.4,3.8,9,4.5,13.7l-1.4-1.3l-0.5,3.1l-4,0.5l-4.4-5.9l0.4-2.8L81.6,35l-1.2-8.3l-0.8-4.6l-2.7-2l-1.2-1.4l2.4-1.3  l-3.9-2.9L71,13.9l-2.4-3.3C76.9,14.5,84,21,88.6,29.7z M29.6,11.5c4.7-2.5,9.7-4,14.8-4.7l2.5,2L46,11.2l4.4,4.3l0.3,2l3.4,0.3  l-2.2,1.9L46,18.1l-6.8,8.1l-2.8,3.6l-0.1,4.3l-2.7-3.6l-7.1,2.1l-3.2,4.9l1.2,3.3l5.4-0.8l3.1,3.4l-0.4,3.2l2.8,0.7l4.1-2.2  l7.1,1.8l6.7,2.7l5.6,0.1l2.9,4.9l6.4,2.2l5.2,3.9l-2.9,3.9l-3.3,8.3l-4.1,0.8l-1.7,4.8l-6.3,5.2l-4.1,0.8l-1.4,3.9l0.1,2.6l2.2,1.2  l-4.7-1.2l-1.6-3.1l0.7-13.6L45,70l-4.7-2.8l-3.6-5.8l0-10.6l-3-1.1l-3.4-1.9l-1.6-2.6l-3.1-1.8l-2,0.8l-5.7-4.7l-2.8-4.9l-0.7-7.8  l3.5-6.4l0-0.1C21.2,16.9,25.1,13.9,29.6,11.5z"/><text x="0" y="115" fill="#000000" font-size="5px" font-weight="bold" font-family="'Helvetica Neue', Helvetica, Arial-Unicode, Arial, Sans-serif">Created by Martin Chapman Fromm</text><text x="0" y="120" fill="#000000" font-size="5px" font-weight="bold" font-family="'Helvetica Neue', Helvetica, Arial-Unicode, Arial, Sans-serif">from the Noun Project</text></svg>